<svg width="1080" height="270" viewBox="0 0 1080 270" fill="none" xmlns="http://www.w3.org/2000/svg">
<g clip-path="url(#clip0_2_13774)">
<mask id="mask0_2_13774" style="mask-type:luminance" maskUnits="userSpaceOnUse" x="38" y="0" width="103" height="179">
<path d="M140.615 0L140.615 178.708L38.1599 178.708L38.1602 5.59806e-07L140.615 0Z" fill="white"/>
</mask>
<g mask="url(#mask0_2_13774)">
<mask id="mask1_2_13774" style="mask-type:luminance" maskUnits="userSpaceOnUse" x="38" y="0" width="103" height="179">
<path d="M38.1599 178.708L38.1601 38.4896L89.3851 2.79917e-07L140.615 38.4896L140.615 178.708L38.1599 178.708Z" fill="white"/>
</mask>
<g mask="url(#mask1_2_13774)">
<path d="M140.615 178.708L38.1599 178.708L38.1602 5.59806e-07L140.615 0L140.615 178.708Z" fill="#B69D6B"/>
</g>
</g>
<mask id="mask2_2_13774" style="mask-type:luminance" maskUnits="userSpaceOnUse" x="38" y="153" width="103" height="118">
<path d="M140.625 153.724L140.625 270.458L38.1696 270.458L38.1702 153.724L140.625 153.724Z" fill="white"/>
</mask>
<g mask="url(#mask2_2_13774)">
<mask id="mask3_2_13774" style="mask-type:luminance" maskUnits="userSpaceOnUse" x="38" y="153" width="103" height="118">
<path d="M140.625 153.724L140.625 231.969L89.3955 270.458L38.1698 231.969L38.1702 153.724L140.625 153.724Z" fill="white"/>
</mask>
<g mask="url(#mask3_2_13774)">
<path d="M38.1702 153.724L140.625 153.724L140.625 270.458L38.1696 270.458L38.1702 153.724Z" fill="#B69D6B"/>
</g>
</g>
<mask id="mask4_2_13774" style="mask-type:luminance" maskUnits="userSpaceOnUse" x="188" y="0" width="103" height="179">
<path d="M290.818 0L290.818 178.708L188.359 178.708L188.359 5.59828e-07L290.818 0Z" fill="white"/>
</mask>
<g mask="url(#mask4_2_13774)">
<mask id="mask5_2_13774" style="mask-type:luminance" maskUnits="userSpaceOnUse" x="188" y="0" width="103" height="179">
<path d="M188.359 178.708L188.359 38.4896L239.589 2.79911e-07L290.818 38.4896L290.818 178.708L188.359 178.708Z" fill="white"/>
</mask>
<g mask="url(#mask5_2_13774)">
<path d="M290.818 178.708L188.359 178.708L188.359 5.59828e-07L290.818 0L290.818 178.708Z" fill="#B69D6B"/>
</g>
</g>
<mask id="mask6_2_13774" style="mask-type:luminance" maskUnits="userSpaceOnUse" x="188" y="153" width="103" height="118">
<path d="M290.828 153.724L290.828 270.458L188.37 270.458L188.37 153.724L290.828 153.724Z" fill="white"/>
</mask>
<g mask="url(#mask6_2_13774)">
<mask id="mask7_2_13774" style="mask-type:luminance" maskUnits="userSpaceOnUse" x="188" y="153" width="103" height="118">
<path d="M290.828 153.724L290.828 231.969L239.599 270.458L188.37 231.969L188.37 153.724L290.828 153.724Z" fill="white"/>
</mask>
<g mask="url(#mask7_2_13774)">
<path d="M188.37 153.724L290.828 153.724L290.828 270.458L188.37 270.458L188.37 153.724Z" fill="#B69D6B"/>
</g>
</g>
<mask id="mask8_2_13774" style="mask-type:luminance" maskUnits="userSpaceOnUse" x="338" y="0" width="104" height="179">
<path d="M441.021 0L441.021 178.708L338.562 178.708L338.562 5.59828e-07L441.021 0Z" fill="white"/>
</mask>
<g mask="url(#mask8_2_13774)">
<mask id="mask9_2_13774" style="mask-type:luminance" maskUnits="userSpaceOnUse" x="338" y="0" width="104" height="179">
<path d="M338.562 178.708L338.562 38.4896L389.792 2.79911e-07L441.021 38.4896L441.021 178.708L338.562 178.708Z" fill="white"/>
</mask>
<g mask="url(#mask9_2_13774)">
<path d="M441.021 178.708L338.562 178.708L338.562 5.59828e-07L441.021 0L441.021 178.708Z" fill="#B69D6B"/>
</g>
</g>
<mask id="mask10_2_13774" style="mask-type:luminance" maskUnits="userSpaceOnUse" x="338" y="153" width="104" height="118">
<path d="M441.036 153.724L441.036 270.458L338.578 270.458L338.578 153.724L441.036 153.724Z" fill="white"/>
</mask>
<g mask="url(#mask10_2_13774)">
<mask id="mask11_2_13774" style="mask-type:luminance" maskUnits="userSpaceOnUse" x="338" y="153" width="104" height="118">
<path d="M441.036 153.724L441.036 231.969L389.807 270.458L338.578 231.969L338.578 153.724L441.036 153.724Z" fill="white"/>
</mask>
<g mask="url(#mask11_2_13774)">
<path d="M338.578 153.724L441.036 153.724L441.036 270.458L338.578 270.458L338.578 153.724Z" fill="#B69D6B"/>
</g>
</g>
<mask id="mask12_2_13774" style="mask-type:luminance" maskUnits="userSpaceOnUse" x="488" y="0" width="104" height="179">
<path d="M591.229 0L591.229 178.708L488.771 178.708L488.771 5.59823e-07L591.229 0Z" fill="white"/>
</mask>
<g mask="url(#mask12_2_13774)">
<mask id="mask13_2_13774" style="mask-type:luminance" maskUnits="userSpaceOnUse" x="488" y="0" width="104" height="179">
<path d="M488.771 178.708L488.771 38.4896L540 2.79911e-07L591.229 38.4896L591.229 178.708L488.771 178.708Z" fill="white"/>
</mask>
<g mask="url(#mask13_2_13774)">
<path d="M591.229 178.708L488.771 178.708L488.771 5.59823e-07L591.229 0L591.229 178.708Z" fill="#B69D6B"/>
</g>
</g>
<mask id="mask14_2_13774" style="mask-type:luminance" maskUnits="userSpaceOnUse" x="488" y="153" width="104" height="118">
<path d="M591.24 153.724L591.24 270.458L488.781 270.458L488.781 153.724L591.24 153.724Z" fill="white"/>
</mask>
<g mask="url(#mask14_2_13774)">
<mask id="mask15_2_13774" style="mask-type:luminance" maskUnits="userSpaceOnUse" x="488" y="153" width="104" height="118">
<path d="M591.24 153.724L591.24 231.969L540.01 270.458L488.781 231.969L488.781 153.724L591.24 153.724Z" fill="white"/>
</mask>
<g mask="url(#mask15_2_13774)">
<path d="M488.781 153.724L591.24 153.724L591.24 270.458L488.781 270.458L488.781 153.724Z" fill="#B69D6B"/>
</g>
</g>
<mask id="mask16_2_13774" style="mask-type:luminance" maskUnits="userSpaceOnUse" x="638" y="0" width="104" height="179">
<path d="M741.432 3.05176e-05L741.432 178.708L638.974 178.708L638.974 3.10774e-05L741.432 3.05176e-05Z" fill="white"/>
</mask>
<g mask="url(#mask16_2_13774)">
<mask id="mask17_2_13774" style="mask-type:luminance" maskUnits="userSpaceOnUse" x="638" y="0" width="104" height="179">
<path d="M638.974 178.708L638.974 38.4896L690.203 3.07975e-05L741.432 38.4896L741.432 178.708L638.974 178.708Z" fill="white"/>
</mask>
<g mask="url(#mask17_2_13774)">
<path d="M741.432 178.708L638.974 178.708L638.974 3.10774e-05L741.432 3.05176e-05L741.432 178.708Z" fill="#B69D6B"/>
</g>
</g>
<mask id="mask18_2_13774" style="mask-type:luminance" maskUnits="userSpaceOnUse" x="638" y="153" width="104" height="118">
<path d="M741.443 153.724L741.443 270.458L638.984 270.458L638.984 153.724L741.443 153.724Z" fill="white"/>
</mask>
<g mask="url(#mask18_2_13774)">
<mask id="mask19_2_13774" style="mask-type:luminance" maskUnits="userSpaceOnUse" x="638" y="153" width="104" height="118">
<path d="M741.443 153.724L741.443 231.969L690.214 270.458L638.984 231.969L638.984 153.724L741.443 153.724Z" fill="white"/>
</mask>
<g mask="url(#mask19_2_13774)">
<path d="M638.984 153.724L741.443 153.724L741.443 270.458L638.984 270.458L638.984 153.724Z" fill="#B69D6B"/>
</g>
</g>
<mask id="mask20_2_13774" style="mask-type:luminance" maskUnits="userSpaceOnUse" x="789" y="0" width="103" height="179">
<path d="M891.635 3.05176e-05L891.635 178.708L789.177 178.708L789.177 3.10774e-05L891.635 3.05176e-05Z" fill="white"/>
</mask>
<g mask="url(#mask20_2_13774)">
<mask id="mask21_2_13774" style="mask-type:luminance" maskUnits="userSpaceOnUse" x="789" y="0" width="103" height="179">
<path d="M789.177 178.708L789.177 38.4896L840.406 3.07975e-05L891.635 38.4896L891.635 178.708L789.177 178.708Z" fill="white"/>
</mask>
<g mask="url(#mask21_2_13774)">
<path d="M891.635 178.708L789.177 178.708L789.177 3.10774e-05L891.635 3.05176e-05L891.635 178.708Z" fill="#B69D6B"/>
</g>
</g>
<mask id="mask22_2_13774" style="mask-type:luminance" maskUnits="userSpaceOnUse" x="789" y="153" width="103" height="118">
<path d="M891.646 153.724L891.646 270.458L789.188 270.458L789.188 153.724L891.646 153.724Z" fill="white"/>
</mask>
<g mask="url(#mask22_2_13774)">
<mask id="mask23_2_13774" style="mask-type:luminance" maskUnits="userSpaceOnUse" x="789" y="153" width="103" height="118">
<path d="M891.646 153.724L891.646 231.969L840.417 270.458L789.188 231.969L789.188 153.724L891.646 153.724Z" fill="white"/>
</mask>
<g mask="url(#mask23_2_13774)">
<path d="M789.188 153.724L891.646 153.724L891.646 270.458L789.188 270.458L789.188 153.724Z" fill="#B69D6B"/>
</g>
</g>
<mask id="mask24_2_13774" style="mask-type:luminance" maskUnits="userSpaceOnUse" x="939" y="0" width="103" height="179">
<path d="M1041.84 3.05176e-05L1041.84 178.708L939.385 178.708L939.385 3.10774e-05L1041.84 3.05176e-05Z" fill="white"/>
</mask>
<g mask="url(#mask24_2_13774)">
<mask id="mask25_2_13774" style="mask-type:luminance" maskUnits="userSpaceOnUse" x="939" y="0" width="103" height="179">
<path d="M939.385 178.708L939.385 38.4896L990.615 3.07975e-05L1041.84 38.4896L1041.84 178.708L939.385 178.708Z" fill="white"/>
</mask>
<g mask="url(#mask25_2_13774)">
<path d="M1041.84 178.708L939.385 178.708L939.385 3.10774e-05L1041.84 3.05176e-05L1041.84 178.708Z" fill="#B69D6B"/>
</g>
</g>
<mask id="mask26_2_13774" style="mask-type:luminance" maskUnits="userSpaceOnUse" x="939" y="153" width="103" height="118">
<path d="M1041.85 153.724L1041.85 270.458L939.396 270.458L939.396 153.724L1041.85 153.724Z" fill="white"/>
</mask>
<g mask="url(#mask26_2_13774)">
<mask id="mask27_2_13774" style="mask-type:luminance" maskUnits="userSpaceOnUse" x="939" y="153" width="103" height="118">
<path d="M1041.85 153.724L1041.85 231.969L990.625 270.458L939.396 231.969L939.396 153.724L1041.85 153.724Z" fill="white"/>
</mask>
<g mask="url(#mask27_2_13774)">
<path d="M939.396 153.724L1041.85 153.724L1041.85 270.458L939.396 270.458L939.396 153.724Z" fill="#B69D6B"/>
</g>
</g>
<mask id="mask28_2_13774" style="mask-type:luminance" maskUnits="userSpaceOnUse" x="0" y="66" width="1081" height="43">
<path d="M1080 66.3438L1080 108.005L3.60396e-05 108.005L0.000152588 66.3438L1080 66.3438Z" fill="white"/>
</mask>
<g mask="url(#mask28_2_13774)">
<path d="M1080 66.3438L1080 108.005L3.60396e-05 108.005L0.000152588 66.3438L1080 66.3438Z" fill="#9D7B5C"/>
</g>
<mask id="mask29_2_13774" style="mask-type:luminance" maskUnits="userSpaceOnUse" x="0" y="157" width="1081" height="43">
<path d="M1080 157.88L1080 199.542L2.07785e-05 199.542L0.000137329 157.88L1080 157.88Z" fill="white"/>
</mask>
<g mask="url(#mask29_2_13774)">
<path d="M1080 157.88L1080 199.542L2.07785e-05 199.542L0.000137329 157.88L1080 157.88Z" fill="#9D7B5C"/>
</g>
</g>
<defs>
<clipPath id="clip0_2_13774">
<rect width="1080" height="270" fill="white"/>
</clipPath>
</defs>
</svg>
