<svg width="270" height="1080" viewBox="0 0 270 1080" fill="none" xmlns="http://www.w3.org/2000/svg">
<g clip-path="url(#clip0_1_6577)">
<mask id="mask0_1_6577" style="mask-type:luminance" maskUnits="userSpaceOnUse" x="0" y="939" width="179" height="103">
<path d="M0 939.385H178.708V1041.84H0V939.385Z" fill="white"/>
</mask>
<g mask="url(#mask0_1_6577)">
<mask id="mask1_1_6577" style="mask-type:luminance" maskUnits="userSpaceOnUse" x="0" y="939" width="179" height="103">
<path d="M178.708 1041.84H38.4896L0 990.615L38.4896 939.385H178.708V1041.84Z" fill="white"/>
</mask>
<g mask="url(#mask1_1_6577)">
<path d="M178.708 939.385V1041.84H0V939.385H178.708Z" fill="#B69D6B"/>
</g>
</g>
<mask id="mask2_1_6577" style="mask-type:luminance" maskUnits="userSpaceOnUse" x="153" y="939" width="118" height="103">
<path d="M153.724 939.375H270.458V1041.83H153.724V939.375Z" fill="white"/>
</mask>
<g mask="url(#mask2_1_6577)">
<mask id="mask3_1_6577" style="mask-type:luminance" maskUnits="userSpaceOnUse" x="153" y="939" width="118" height="103">
<path d="M153.724 939.375H231.969L270.458 990.604L231.969 1041.83H153.724V939.375Z" fill="white"/>
</mask>
<g mask="url(#mask3_1_6577)">
<path d="M153.724 1041.83V939.375H270.458V1041.83H153.724Z" fill="#B69D6B"/>
</g>
</g>
<mask id="mask4_1_6577" style="mask-type:luminance" maskUnits="userSpaceOnUse" x="0" y="789" width="179" height="103">
<path d="M0 789.182H178.708V891.641H0V789.182Z" fill="white"/>
</mask>
<g mask="url(#mask4_1_6577)">
<mask id="mask5_1_6577" style="mask-type:luminance" maskUnits="userSpaceOnUse" x="0" y="789" width="179" height="103">
<path d="M178.708 891.641H38.4896L0 840.411L38.4896 789.182H178.708V891.641Z" fill="white"/>
</mask>
<g mask="url(#mask5_1_6577)">
<path d="M178.708 789.182V891.641H0V789.182H178.708Z" fill="#B69D6B"/>
</g>
</g>
<mask id="mask6_1_6577" style="mask-type:luminance" maskUnits="userSpaceOnUse" x="153" y="789" width="118" height="103">
<path d="M153.724 789.172H270.458V891.63H153.724V789.172Z" fill="white"/>
</mask>
<g mask="url(#mask6_1_6577)">
<mask id="mask7_1_6577" style="mask-type:luminance" maskUnits="userSpaceOnUse" x="153" y="789" width="118" height="103">
<path d="M153.724 789.172H231.969L270.458 840.401L231.969 891.63H153.724V789.172Z" fill="white"/>
</mask>
<g mask="url(#mask7_1_6577)">
<path d="M153.724 891.63V789.172H270.458V891.63H153.724Z" fill="#B69D6B"/>
</g>
</g>
<mask id="mask8_1_6577" style="mask-type:luminance" maskUnits="userSpaceOnUse" x="0" y="638" width="179" height="104">
<path d="M0 638.979H178.708V741.438H0V638.979Z" fill="white"/>
</mask>
<g mask="url(#mask8_1_6577)">
<mask id="mask9_1_6577" style="mask-type:luminance" maskUnits="userSpaceOnUse" x="0" y="638" width="179" height="104">
<path d="M178.708 741.438H38.4896L0 690.208L38.4896 638.979H178.708V741.438Z" fill="white"/>
</mask>
<g mask="url(#mask9_1_6577)">
<path d="M178.708 638.979V741.438H0V638.979H178.708Z" fill="#B69D6B"/>
</g>
</g>
<mask id="mask10_1_6577" style="mask-type:luminance" maskUnits="userSpaceOnUse" x="153" y="638" width="118" height="104">
<path d="M153.724 638.964H270.458V741.422H153.724V638.964Z" fill="white"/>
</mask>
<g mask="url(#mask10_1_6577)">
<mask id="mask11_1_6577" style="mask-type:luminance" maskUnits="userSpaceOnUse" x="153" y="638" width="118" height="104">
<path d="M153.724 638.964H231.969L270.458 690.193L231.969 741.422H153.724V638.964Z" fill="white"/>
</mask>
<g mask="url(#mask11_1_6577)">
<path d="M153.724 741.422V638.964H270.458V741.422H153.724Z" fill="#B69D6B"/>
</g>
</g>
<mask id="mask12_1_6577" style="mask-type:luminance" maskUnits="userSpaceOnUse" x="0" y="488" width="179" height="104">
<path d="M0 488.771H178.708V591.229H0V488.771Z" fill="white"/>
</mask>
<g mask="url(#mask12_1_6577)">
<mask id="mask13_1_6577" style="mask-type:luminance" maskUnits="userSpaceOnUse" x="0" y="488" width="179" height="104">
<path d="M178.708 591.229H38.4896L0 540L38.4896 488.771H178.708V591.229Z" fill="white"/>
</mask>
<g mask="url(#mask13_1_6577)">
<path d="M178.708 488.771V591.229H0V488.771H178.708Z" fill="#B69D6B"/>
</g>
</g>
<mask id="mask14_1_6577" style="mask-type:luminance" maskUnits="userSpaceOnUse" x="153" y="488" width="118" height="104">
<path d="M153.724 488.76H270.458V591.219H153.724V488.76Z" fill="white"/>
</mask>
<g mask="url(#mask14_1_6577)">
<mask id="mask15_1_6577" style="mask-type:luminance" maskUnits="userSpaceOnUse" x="153" y="488" width="118" height="104">
<path d="M153.724 488.76H231.969L270.458 539.99L231.969 591.219H153.724V488.76Z" fill="white"/>
</mask>
<g mask="url(#mask15_1_6577)">
<path d="M153.724 591.219V488.76H270.458V591.219H153.724Z" fill="#B69D6B"/>
</g>
</g>
<mask id="mask16_1_6577" style="mask-type:luminance" maskUnits="userSpaceOnUse" x="0" y="338" width="179" height="104">
<path d="M0 338.568H178.708V441.026H0V338.568Z" fill="white"/>
</mask>
<g mask="url(#mask16_1_6577)">
<mask id="mask17_1_6577" style="mask-type:luminance" maskUnits="userSpaceOnUse" x="0" y="338" width="179" height="104">
<path d="M178.708 441.026H38.4896L0 389.797L38.4896 338.568H178.708V441.026Z" fill="white"/>
</mask>
<g mask="url(#mask17_1_6577)">
<path d="M178.708 338.568V441.026H0V338.568H178.708Z" fill="#B69D6B"/>
</g>
</g>
<mask id="mask18_1_6577" style="mask-type:luminance" maskUnits="userSpaceOnUse" x="153" y="338" width="118" height="104">
<path d="M153.724 338.557H270.458V441.016H153.724V338.557Z" fill="white"/>
</mask>
<g mask="url(#mask18_1_6577)">
<mask id="mask19_1_6577" style="mask-type:luminance" maskUnits="userSpaceOnUse" x="153" y="338" width="118" height="104">
<path d="M153.724 338.557H231.969L270.458 389.786L231.969 441.016H153.724V338.557Z" fill="white"/>
</mask>
<g mask="url(#mask19_1_6577)">
<path d="M153.724 441.016V338.557H270.458V441.016H153.724Z" fill="#B69D6B"/>
</g>
</g>
<mask id="mask20_1_6577" style="mask-type:luminance" maskUnits="userSpaceOnUse" x="0" y="188" width="179" height="103">
<path d="M0 188.365H178.708V290.823H0V188.365Z" fill="white"/>
</mask>
<g mask="url(#mask20_1_6577)">
<mask id="mask21_1_6577" style="mask-type:luminance" maskUnits="userSpaceOnUse" x="0" y="188" width="179" height="103">
<path d="M178.708 290.823H38.4896L0 239.594L38.4896 188.365H178.708V290.823Z" fill="white"/>
</mask>
<g mask="url(#mask21_1_6577)">
<path d="M178.708 188.365V290.823H0V188.365H178.708Z" fill="#B69D6B"/>
</g>
</g>
<mask id="mask22_1_6577" style="mask-type:luminance" maskUnits="userSpaceOnUse" x="153" y="188" width="118" height="103">
<path d="M153.724 188.354H270.458V290.812H153.724V188.354Z" fill="white"/>
</mask>
<g mask="url(#mask22_1_6577)">
<mask id="mask23_1_6577" style="mask-type:luminance" maskUnits="userSpaceOnUse" x="153" y="188" width="118" height="103">
<path d="M153.724 188.354H231.969L270.458 239.583L231.969 290.812H153.724V188.354Z" fill="white"/>
</mask>
<g mask="url(#mask23_1_6577)">
<path d="M153.724 290.812V188.354H270.458V290.812H153.724Z" fill="#B69D6B"/>
</g>
</g>
<mask id="mask24_1_6577" style="mask-type:luminance" maskUnits="userSpaceOnUse" x="0" y="38" width="179" height="103">
<path d="M0 38.1562H178.708V140.615H0V38.1562Z" fill="white"/>
</mask>
<g mask="url(#mask24_1_6577)">
<mask id="mask25_1_6577" style="mask-type:luminance" maskUnits="userSpaceOnUse" x="0" y="38" width="179" height="103">
<path d="M178.708 140.615H38.4896L0 89.3854L38.4896 38.1562H178.708V140.615Z" fill="white"/>
</mask>
<g mask="url(#mask25_1_6577)">
<path d="M178.708 38.1562V140.615H0V38.1562H178.708Z" fill="#B69D6B"/>
</g>
</g>
<mask id="mask26_1_6577" style="mask-type:luminance" maskUnits="userSpaceOnUse" x="153" y="38" width="118" height="103">
<path d="M153.724 38.1458H270.458V140.604H153.724V38.1458Z" fill="white"/>
</mask>
<g mask="url(#mask26_1_6577)">
<mask id="mask27_1_6577" style="mask-type:luminance" maskUnits="userSpaceOnUse" x="153" y="38" width="118" height="103">
<path d="M153.724 38.1458H231.969L270.458 89.375L231.969 140.604H153.724V38.1458Z" fill="white"/>
</mask>
<g mask="url(#mask27_1_6577)">
<path d="M153.724 140.604V38.1458H270.458V140.604H153.724Z" fill="#B69D6B"/>
</g>
</g>
<mask id="mask28_1_6577" style="mask-type:luminance" maskUnits="userSpaceOnUse" x="66" y="0" width="43" height="1080">
<path d="M66.3438 0H108.005V1080H66.3438V0Z" fill="white"/>
</mask>
<g mask="url(#mask28_1_6577)">
<path d="M66.3438 0H108.005V1080H66.3438V0Z" fill="#9D7B5C"/>
</g>
<mask id="mask29_1_6577" style="mask-type:luminance" maskUnits="userSpaceOnUse" x="157" y="0" width="43" height="1080">
<path d="M157.88 0H199.542V1080H157.88V0Z" fill="white"/>
</mask>
<g mask="url(#mask29_1_6577)">
<path d="M157.88 0H199.542V1080H157.88V0Z" fill="#9D7B5C"/>
</g>
</g>
<defs>
<clipPath id="clip0_1_6577">
<rect width="270" height="1080" fill="white"/>
</clipPath>
</defs>
</svg>
