<svg width="296" height="1080" viewBox="0 0 296 1080" fill="none" xmlns="http://www.w3.org/2000/svg">
<mask id="mask0_1_13721" style="mask-type:luminance" maskUnits="userSpaceOnUse" x="19" y="0" width="262" height="558">
<path d="M19.5416 0H280.333V557.078H19.5416V0Z" fill="white"/>
</mask>
<g mask="url(#mask0_1_13721)">
<mask id="mask1_1_13721" style="mask-type:luminance" maskUnits="userSpaceOnUse" x="19" y="0" width="262" height="558">
<path d="M54.5416 0H245.333C264.667 0 280.333 15.6719 280.333 35V522.078C280.333 541.406 264.667 557.078 245.333 557.078H54.5416C35.2135 557.078 19.5416 541.406 19.5416 522.078V35C19.5416 15.6719 35.2135 0 54.5416 0Z" fill="white"/>
</mask>
<g mask="url(#mask1_1_13721)">
<path d="M19.5416 0H280.333V557.078H19.5416V0Z" fill="#A6A6A6"/>
</g>
</g>
<mask id="mask2_1_13721" style="mask-type:luminance" maskUnits="userSpaceOnUse" x="10" y="557" width="271" height="523">
<path d="M10 557.078H280.333V1080H10V557.078Z" fill="white"/>
</mask>
<g mask="url(#mask2_1_13721)">
<mask id="mask3_1_13721" style="mask-type:luminance" maskUnits="userSpaceOnUse" x="10" y="557" width="271" height="523">
<path d="M45 557.078H245.333C264.667 557.078 280.333 572.745 280.333 592.078V1045C280.333 1064.33 264.667 1080 245.333 1080H45C25.6667 1080 10 1064.33 10 1045V592.078C10 572.745 25.6667 557.078 45 557.078Z" fill="white"/>
</mask>
<g mask="url(#mask3_1_13721)">
<path d="M10 557.078H280.333V1080H10V557.078Z" fill="#A6A6A6"/>
</g>
</g>
<mask id="mask4_1_13721" style="mask-type:luminance" maskUnits="userSpaceOnUse" x="10" y="22" width="269" height="512">
<path d="M10.5 22.6666H278.5V533.333H10.5V22.6666Z" fill="white"/>
</mask>
<g mask="url(#mask4_1_13721)">
<mask id="mask5_1_13721" style="mask-type:luminance" maskUnits="userSpaceOnUse" x="10" y="22" width="270" height="513">
<path d="M35.2135 22.1041L279.979 34.4375L254.76 534.974L10 522.641L35.2135 22.1041Z" fill="white"/>
</mask>
<g mask="url(#mask5_1_13721)">
<mask id="mask6_1_13721" style="mask-type:luminance" maskUnits="userSpaceOnUse" x="11" y="23" width="268" height="511">
<path d="M70.1718 23.8645L245.026 32.6718C264.328 33.6458 279.193 50.0833 278.219 69.3906L256.526 500.016C255.552 519.323 239.115 534.187 219.807 533.213L44.9531 524.406C25.6458 523.432 10.7864 506.995 11.7604 487.687L33.4531 57.0572C34.427 37.7552 50.8645 22.8906 70.1718 23.8645Z" fill="white"/>
</mask>
<g mask="url(#mask6_1_13721)">
<mask id="mask7_1_13721" style="mask-type:luminance" maskUnits="userSpaceOnUse" x="10" y="22" width="270" height="513">
<path d="M35.2135 22.1041L279.979 34.4375L254.76 534.974L10 522.641L35.2135 22.1041Z" fill="white"/>
</mask>
<g mask="url(#mask7_1_13721)">
<path d="M11.4635 9.40619L-14.9062 532.891L278.51 547.672L304.885 24.1874L11.4635 9.40619Z" fill="url(#paint0_radial_1_13721)"/>
</g>
</g>
</g>
</g>
<mask id="mask8_1_13721" style="mask-type:luminance" maskUnits="userSpaceOnUse" x="10" y="557" width="252" height="499">
<path d="M10.5 557.333H261.167V1056H10.5V557.333Z" fill="white"/>
</mask>
<g mask="url(#mask8_1_13721)">
<mask id="mask9_1_13721" style="mask-type:luminance" maskUnits="userSpaceOnUse" x="10" y="557" width="252" height="499">
<path d="M10 562.807L249.453 557.078L261.25 1050.13L21.7969 1055.85L10 562.807Z" fill="white"/>
</mask>
<g mask="url(#mask9_1_13721)">
<mask id="mask10_1_13721" style="mask-type:luminance" maskUnits="userSpaceOnUse" x="10" y="557" width="251" height="499">
<path d="M44.9895 561.969L214.464 557.917C233.786 557.453 249.828 572.745 250.292 592.068L260.411 1015.14C260.875 1034.46 245.583 1050.5 226.26 1050.96L56.7864 1055.02C37.4583 1055.48 21.4218 1040.19 20.9583 1020.86L10.8333 597.797C10.375 578.474 25.6614 562.432 44.9895 561.969Z" fill="white"/>
</mask>
<g mask="url(#mask10_1_13721)">
<mask id="mask11_1_13721" style="mask-type:luminance" maskUnits="userSpaceOnUse" x="10" y="557" width="252" height="499">
<path d="M10 562.807L249.453 557.078L261.25 1050.13L21.7969 1055.85L10 562.807Z" fill="white"/>
</mask>
<g mask="url(#mask11_1_13721)">
<path d="M-1.5365 557.734L10.5156 1061.47L272.781 1055.2L260.729 551.464L-1.5365 557.734Z" fill="url(#paint1_radial_1_13721)"/>
</g>
</g>
</g>
</g>
<defs>
<radialGradient id="paint0_radial_1_13721" cx="0" cy="0" r="1" gradientUnits="userSpaceOnUse" gradientTransform="translate(144.989 278.539) rotate(2.88405) scale(173.294 354.383)">
<stop stop-color="#D9D9D9"/>
<stop offset="0.0625" stop-color="#D8D8D8"/>
<stop offset="0.121094" stop-color="#D7D7D7"/>
<stop offset="0.175781" stop-color="#D6D6D6"/>
<stop offset="0.226562" stop-color="#D5D5D5"/>
<stop offset="0.273438" stop-color="#D5D5D5"/>
<stop offset="0.316406" stop-color="#D4D4D4"/>
<stop offset="0.355469" stop-color="#D4D4D4"/>
<stop offset="0.394531" stop-color="#D3D3D3"/>
<stop offset="0.429688" stop-color="#D2D2D2"/>
<stop offset="0.5" stop-color="#D2D2D2"/>
<stop offset="0.5625" stop-color="#D1D1D1"/>
<stop offset="0.617188" stop-color="#D0D0D0"/>
<stop offset="0.664062" stop-color="#CFCFCF"/>
<stop offset="0.703125" stop-color="#CFCFCF"/>
<stop offset="0.738281" stop-color="#CECECE"/>
<stop offset="0.800781" stop-color="#CDCDCD"/>
<stop offset="0.847656" stop-color="#CDCDCD"/>
<stop offset="0.882812" stop-color="#CCCCCC"/>
<stop offset="0.941406" stop-color="#CBCBCB"/>
<stop offset="1" stop-color="#CBCBCB"/>
</radialGradient>
<radialGradient id="paint1_radial_1_13721" cx="0" cy="0" r="1" gradientUnits="userSpaceOnUse" gradientTransform="translate(135.624 806.467) rotate(-1.37054) scale(169.368 348.739)">
<stop stop-color="#D9D9D9"/>
<stop offset="0.0625" stop-color="#D8D8D8"/>
<stop offset="0.121094" stop-color="#D7D7D7"/>
<stop offset="0.175781" stop-color="#D6D6D6"/>
<stop offset="0.226562" stop-color="#D5D5D5"/>
<stop offset="0.273438" stop-color="#D5D5D5"/>
<stop offset="0.316406" stop-color="#D4D4D4"/>
<stop offset="0.355469" stop-color="#D4D4D4"/>
<stop offset="0.394531" stop-color="#D3D3D3"/>
<stop offset="0.429688" stop-color="#D2D2D2"/>
<stop offset="0.5" stop-color="#D2D2D2"/>
<stop offset="0.5625" stop-color="#D1D1D1"/>
<stop offset="0.617188" stop-color="#D0D0D0"/>
<stop offset="0.664062" stop-color="#CFCFCF"/>
<stop offset="0.703125" stop-color="#CFCFCF"/>
<stop offset="0.738281" stop-color="#CECECE"/>
<stop offset="0.800781" stop-color="#CDCDCD"/>
<stop offset="0.847656" stop-color="#CDCDCD"/>
<stop offset="0.882812" stop-color="#CCCCCC"/>
<stop offset="0.941406" stop-color="#CBCBCB"/>
<stop offset="1" stop-color="#CBCBCB"/>
</radialGradient>
</defs>
</svg>
